<?xml version="1.0" encoding="utf-8" standalone="no"?>
<!DOCTYPE svg PUBLIC "-//W3C//DTD SVG 1.1//EN"
  "http://www.w3.org/Graphics/SVG/1.1/DTD/svg11.dtd">
<!-- Created with matplotlib (https://matplotlib.org/) -->
<svg height="345.6pt" version="1.1" viewBox="0 0 460.8 345.6" width="460.8pt" xmlns="http://www.w3.org/2000/svg" xmlns:xlink="http://www.w3.org/1999/xlink">
 <defs>
  <style type="text/css">
*{stroke-linecap:butt;stroke-linejoin:round;}
  </style>
 </defs>
 <g id="figure_1">
  <g id="patch_1">
   <path d="M 0 345.6 
L 460.8 345.6 
L 460.8 0 
L 0 0 
z
" style="fill:none;"/>
  </g>
  <g id="axes_1">
   <g id="patch_2">
    <path d="M 57.6 307.584 
L 414.72 307.584 
L 414.72 41.472 
L 57.6 41.472 
z
" style="fill:none;"/>
   </g>
   <g id="matplotlib.axis_1">
    <g id="xtick_1">
     <g id="line2d_1">
      <defs>
       <path d="M 0 0 
L 0 3.5 
" id="ma3982ddb82" style="stroke:#000000;stroke-width:0.8;"/>
      </defs>
      <g>
       <use style="stroke:#000000;stroke-width:0.8;" x="73.800259" xlink:href="#ma3982ddb82" y="307.584"/>
      </g>
     </g>
     <g id="text_1">
      <!-- 0 -->
      <defs>
       <path d="M 31.78125 66.40625 
Q 24.171875 66.40625 20.328125 58.90625 
Q 16.5 51.421875 16.5 36.375 
Q 16.5 21.390625 20.328125 13.890625 
Q 24.171875 6.390625 31.78125 6.390625 
Q 39.453125 6.390625 43.28125 13.890625 
Q 47.125 21.390625 47.125 36.375 
Q 47.125 51.421875 43.28125 58.90625 
Q 39.453125 66.40625 31.78125 66.40625 
z
M 31.78125 74.21875 
Q 44.046875 74.21875 50.515625 64.515625 
Q 56.984375 54.828125 56.984375 36.375 
Q 56.984375 17.96875 50.515625 8.265625 
Q 44.046875 -1.421875 31.78125 -1.421875 
Q 19.53125 -1.421875 13.0625 8.265625 
Q 6.59375 17.96875 6.59375 36.375 
Q 6.59375 54.828125 13.0625 64.515625 
Q 19.53125 74.21875 31.78125 74.21875 
z
" id="DejaVuSans-48"/>
      </defs>
      <g transform="translate(70.619009 322.182437)scale(0.1 -0.1)">
       <use xlink:href="#DejaVuSans-48"/>
      </g>
     </g>
    </g>
    <g id="xtick_2">
     <g id="line2d_2">
      <g>
       <use style="stroke:#000000;stroke-width:0.8;" x="138.737661" xlink:href="#ma3982ddb82" y="307.584"/>
      </g>
     </g>
     <g id="text_2">
      <!-- 2000 -->
      <defs>
       <path d="M 19.1875 8.296875 
L 53.609375 8.296875 
L 53.609375 0 
L 7.328125 0 
L 7.328125 8.296875 
Q 12.9375 14.109375 22.625 23.890625 
Q 32.328125 33.6875 34.8125 36.53125 
Q 39.546875 41.84375 41.421875 45.53125 
Q 43.3125 49.21875 43.3125 52.78125 
Q 43.3125 58.59375 39.234375 62.25 
Q 35.15625 65.921875 28.609375 65.921875 
Q 23.96875 65.921875 18.8125 64.3125 
Q 13.671875 62.703125 7.8125 59.421875 
L 7.8125 69.390625 
Q 13.765625 71.78125 18.9375 73 
Q 24.125 74.21875 28.421875 74.21875 
Q 39.75 74.21875 46.484375 68.546875 
Q 53.21875 62.890625 53.21875 53.421875 
Q 53.21875 48.921875 51.53125 44.890625 
Q 49.859375 40.875 45.40625 35.40625 
Q 44.1875 33.984375 37.640625 27.21875 
Q 31.109375 20.453125 19.1875 8.296875 
z
" id="DejaVuSans-50"/>
      </defs>
      <g transform="translate(126.012661 322.182437)scale(0.1 -0.1)">
       <use xlink:href="#DejaVuSans-50"/>
       <use x="63.623047" xlink:href="#DejaVuSans-48"/>
       <use x="127.246094" xlink:href="#DejaVuSans-48"/>
       <use x="190.869141" xlink:href="#DejaVuSans-48"/>
      </g>
     </g>
    </g>
    <g id="xtick_3">
     <g id="line2d_3">
      <g>
       <use style="stroke:#000000;stroke-width:0.8;" x="203.675064" xlink:href="#ma3982ddb82" y="307.584"/>
      </g>
     </g>
     <g id="text_3">
      <!-- 4000 -->
      <defs>
       <path d="M 37.796875 64.3125 
L 12.890625 25.390625 
L 37.796875 25.390625 
z
M 35.203125 72.90625 
L 47.609375 72.90625 
L 47.609375 25.390625 
L 58.015625 25.390625 
L 58.015625 17.1875 
L 47.609375 17.1875 
L 47.609375 0 
L 37.796875 0 
L 37.796875 17.1875 
L 4.890625 17.1875 
L 4.890625 26.703125 
z
" id="DejaVuSans-52"/>
      </defs>
      <g transform="translate(190.950064 322.182437)scale(0.1 -0.1)">
       <use xlink:href="#DejaVuSans-52"/>
       <use x="63.623047" xlink:href="#DejaVuSans-48"/>
       <use x="127.246094" xlink:href="#DejaVuSans-48"/>
       <use x="190.869141" xlink:href="#DejaVuSans-48"/>
      </g>
     </g>
    </g>
    <g id="xtick_4">
     <g id="line2d_4">
      <g>
       <use style="stroke:#000000;stroke-width:0.8;" x="268.612467" xlink:href="#ma3982ddb82" y="307.584"/>
      </g>
     </g>
     <g id="text_4">
      <!-- 6000 -->
      <defs>
       <path d="M 33.015625 40.375 
Q 26.375 40.375 22.484375 35.828125 
Q 18.609375 31.296875 18.609375 23.390625 
Q 18.609375 15.53125 22.484375 10.953125 
Q 26.375 6.390625 33.015625 6.390625 
Q 39.65625 6.390625 43.53125 10.953125 
Q 47.40625 15.53125 47.40625 23.390625 
Q 47.40625 31.296875 43.53125 35.828125 
Q 39.65625 40.375 33.015625 40.375 
z
M 52.59375 71.296875 
L 52.59375 62.3125 
Q 48.875 64.0625 45.09375 64.984375 
Q 41.3125 65.921875 37.59375 65.921875 
Q 27.828125 65.921875 22.671875 59.328125 
Q 17.53125 52.734375 16.796875 39.40625 
Q 19.671875 43.65625 24.015625 45.921875 
Q 28.375 48.1875 33.59375 48.1875 
Q 44.578125 48.1875 50.953125 41.515625 
Q 57.328125 34.859375 57.328125 23.390625 
Q 57.328125 12.15625 50.6875 5.359375 
Q 44.046875 -1.421875 33.015625 -1.421875 
Q 20.359375 -1.421875 13.671875 8.265625 
Q 6.984375 17.96875 6.984375 36.375 
Q 6.984375 53.65625 15.1875 63.9375 
Q 23.390625 74.21875 37.203125 74.21875 
Q 40.921875 74.21875 44.703125 73.484375 
Q 48.484375 72.75 52.59375 71.296875 
z
" id="DejaVuSans-54"/>
      </defs>
      <g transform="translate(255.887467 322.182437)scale(0.1 -0.1)">
       <use xlink:href="#DejaVuSans-54"/>
       <use x="63.623047" xlink:href="#DejaVuSans-48"/>
       <use x="127.246094" xlink:href="#DejaVuSans-48"/>
       <use x="190.869141" xlink:href="#DejaVuSans-48"/>
      </g>
     </g>
    </g>
    <g id="xtick_5">
     <g id="line2d_5">
      <g>
       <use style="stroke:#000000;stroke-width:0.8;" x="333.54987" xlink:href="#ma3982ddb82" y="307.584"/>
      </g>
     </g>
     <g id="text_5">
      <!-- 8000 -->
      <defs>
       <path d="M 31.78125 34.625 
Q 24.75 34.625 20.71875 30.859375 
Q 16.703125 27.09375 16.703125 20.515625 
Q 16.703125 13.921875 20.71875 10.15625 
Q 24.75 6.390625 31.78125 6.390625 
Q 38.8125 6.390625 42.859375 10.171875 
Q 46.921875 13.96875 46.921875 20.515625 
Q 46.921875 27.09375 42.890625 30.859375 
Q 38.875 34.625 31.78125 34.625 
z
M 21.921875 38.8125 
Q 15.578125 40.375 12.03125 44.71875 
Q 8.5 49.078125 8.5 55.328125 
Q 8.5 64.0625 14.71875 69.140625 
Q 20.953125 74.21875 31.78125 74.21875 
Q 42.671875 74.21875 48.875 69.140625 
Q 55.078125 64.0625 55.078125 55.328125 
Q 55.078125 49.078125 51.53125 44.71875 
Q 48 40.375 41.703125 38.8125 
Q 48.828125 37.15625 52.796875 32.3125 
Q 56.78125 27.484375 56.78125 20.515625 
Q 56.78125 9.90625 50.3125 4.234375 
Q 43.84375 -1.421875 31.78125 -1.421875 
Q 19.734375 -1.421875 13.25 4.234375 
Q 6.78125 9.90625 6.78125 20.515625 
Q 6.78125 27.484375 10.78125 32.3125 
Q 14.796875 37.15625 21.921875 38.8125 
z
M 18.3125 54.390625 
Q 18.3125 48.734375 21.84375 45.5625 
Q 25.390625 42.390625 31.78125 42.390625 
Q 38.140625 42.390625 41.71875 45.5625 
Q 45.3125 48.734375 45.3125 54.390625 
Q 45.3125 60.0625 41.71875 63.234375 
Q 38.140625 66.40625 31.78125 66.40625 
Q 25.390625 66.40625 21.84375 63.234375 
Q 18.3125 60.0625 18.3125 54.390625 
z
" id="DejaVuSans-56"/>
      </defs>
      <g transform="translate(320.82487 322.182437)scale(0.1 -0.1)">
       <use xlink:href="#DejaVuSans-56"/>
       <use x="63.623047" xlink:href="#DejaVuSans-48"/>
       <use x="127.246094" xlink:href="#DejaVuSans-48"/>
       <use x="190.869141" xlink:href="#DejaVuSans-48"/>
      </g>
     </g>
    </g>
    <g id="xtick_6">
     <g id="line2d_6">
      <g>
       <use style="stroke:#000000;stroke-width:0.8;" x="398.487273" xlink:href="#ma3982ddb82" y="307.584"/>
      </g>
     </g>
     <g id="text_6">
      <!-- 10000 -->
      <defs>
       <path d="M 12.40625 8.296875 
L 28.515625 8.296875 
L 28.515625 63.921875 
L 10.984375 60.40625 
L 10.984375 69.390625 
L 28.421875 72.90625 
L 38.28125 72.90625 
L 38.28125 8.296875 
L 54.390625 8.296875 
L 54.390625 0 
L 12.40625 0 
z
" id="DejaVuSans-49"/>
      </defs>
      <g transform="translate(382.581023 322.182437)scale(0.1 -0.1)">
       <use xlink:href="#DejaVuSans-49"/>
       <use x="63.623047" xlink:href="#DejaVuSans-48"/>
       <use x="127.246094" xlink:href="#DejaVuSans-48"/>
       <use x="190.869141" xlink:href="#DejaVuSans-48"/>
       <use x="254.492188" xlink:href="#DejaVuSans-48"/>
      </g>
     </g>
    </g>
    <g id="text_7">
     <!-- Iteration -->
     <defs>
      <path d="M 9.8125 72.90625 
L 19.671875 72.90625 
L 19.671875 0 
L 9.8125 0 
z
" id="DejaVuSans-73"/>
      <path d="M 18.3125 70.21875 
L 18.3125 54.6875 
L 36.8125 54.6875 
L 36.8125 47.703125 
L 18.3125 47.703125 
L 18.3125 18.015625 
Q 18.3125 11.328125 20.140625 9.421875 
Q 21.96875 7.515625 27.59375 7.515625 
L 36.8125 7.515625 
L 36.8125 0 
L 27.59375 0 
Q 17.1875 0 13.234375 3.875 
Q 9.28125 7.765625 9.28125 18.015625 
L 9.28125 47.703125 
L 2.6875 47.703125 
L 2.6875 54.6875 
L 9.28125 54.6875 
L 9.28125 70.21875 
z
" id="DejaVuSans-116"/>
      <path d="M 56.203125 29.59375 
L 56.203125 25.203125 
L 14.890625 25.203125 
Q 15.484375 15.921875 20.484375 11.0625 
Q 25.484375 6.203125 34.421875 6.203125 
Q 39.59375 6.203125 44.453125 7.46875 
Q 49.3125 8.734375 54.109375 11.28125 
L 54.109375 2.78125 
Q 49.265625 0.734375 44.1875 -0.34375 
Q 39.109375 -1.421875 33.890625 -1.421875 
Q 20.796875 -1.421875 13.15625 6.1875 
Q 5.515625 13.8125 5.515625 26.8125 
Q 5.515625 40.234375 12.765625 48.109375 
Q 20.015625 56 32.328125 56 
Q 43.359375 56 49.78125 48.890625 
Q 56.203125 41.796875 56.203125 29.59375 
z
M 47.21875 32.234375 
Q 47.125 39.59375 43.09375 43.984375 
Q 39.0625 48.390625 32.421875 48.390625 
Q 24.90625 48.390625 20.390625 44.140625 
Q 15.875 39.890625 15.1875 32.171875 
z
" id="DejaVuSans-101"/>
      <path d="M 41.109375 46.296875 
Q 39.59375 47.171875 37.8125 47.578125 
Q 36.03125 48 33.890625 48 
Q 26.265625 48 22.1875 43.046875 
Q 18.109375 38.09375 18.109375 28.8125 
L 18.109375 0 
L 9.078125 0 
L 9.078125 54.6875 
L 18.109375 54.6875 
L 18.109375 46.1875 
Q 20.953125 51.171875 25.484375 53.578125 
Q 30.03125 56 36.53125 56 
Q 37.453125 56 38.578125 55.875 
Q 39.703125 55.765625 41.0625 55.515625 
z
" id="DejaVuSans-114"/>
      <path d="M 34.28125 27.484375 
Q 23.390625 27.484375 19.1875 25 
Q 14.984375 22.515625 14.984375 16.5 
Q 14.984375 11.71875 18.140625 8.90625 
Q 21.296875 6.109375 26.703125 6.109375 
Q 34.1875 6.109375 38.703125 11.40625 
Q 43.21875 16.703125 43.21875 25.484375 
L 43.21875 27.484375 
z
M 52.203125 31.203125 
L 52.203125 0 
L 43.21875 0 
L 43.21875 8.296875 
Q 40.140625 3.328125 35.546875 0.953125 
Q 30.953125 -1.421875 24.3125 -1.421875 
Q 15.921875 -1.421875 10.953125 3.296875 
Q 6 8.015625 6 15.921875 
Q 6 25.140625 12.171875 29.828125 
Q 18.359375 34.515625 30.609375 34.515625 
L 43.21875 34.515625 
L 43.21875 35.40625 
Q 43.21875 41.609375 39.140625 45 
Q 35.0625 48.390625 27.6875 48.390625 
Q 23 48.390625 18.546875 47.265625 
Q 14.109375 46.140625 10.015625 43.890625 
L 10.015625 52.203125 
Q 14.9375 54.109375 19.578125 55.046875 
Q 24.21875 56 28.609375 56 
Q 40.484375 56 46.34375 49.84375 
Q 52.203125 43.703125 52.203125 31.203125 
z
" id="DejaVuSans-97"/>
      <path d="M 9.421875 54.6875 
L 18.40625 54.6875 
L 18.40625 0 
L 9.421875 0 
z
M 9.421875 75.984375 
L 18.40625 75.984375 
L 18.40625 64.59375 
L 9.421875 64.59375 
z
" id="DejaVuSans-105"/>
      <path d="M 30.609375 48.390625 
Q 23.390625 48.390625 19.1875 42.75 
Q 14.984375 37.109375 14.984375 27.296875 
Q 14.984375 17.484375 19.15625 11.84375 
Q 23.34375 6.203125 30.609375 6.203125 
Q 37.796875 6.203125 41.984375 11.859375 
Q 46.1875 17.53125 46.1875 27.296875 
Q 46.1875 37.015625 41.984375 42.703125 
Q 37.796875 48.390625 30.609375 48.390625 
z
M 30.609375 56 
Q 42.328125 56 49.015625 48.375 
Q 55.71875 40.765625 55.71875 27.296875 
Q 55.71875 13.875 49.015625 6.21875 
Q 42.328125 -1.421875 30.609375 -1.421875 
Q 18.84375 -1.421875 12.171875 6.21875 
Q 5.515625 13.875 5.515625 27.296875 
Q 5.515625 40.765625 12.171875 48.375 
Q 18.84375 56 30.609375 56 
z
" id="DejaVuSans-111"/>
      <path d="M 54.890625 33.015625 
L 54.890625 0 
L 45.90625 0 
L 45.90625 32.71875 
Q 45.90625 40.484375 42.875 44.328125 
Q 39.84375 48.1875 33.796875 48.1875 
Q 26.515625 48.1875 22.3125 43.546875 
Q 18.109375 38.921875 18.109375 30.90625 
L 18.109375 0 
L 9.078125 0 
L 9.078125 54.6875 
L 18.109375 54.6875 
L 18.109375 46.1875 
Q 21.34375 51.125 25.703125 53.5625 
Q 30.078125 56 35.796875 56 
Q 45.21875 56 50.046875 50.171875 
Q 54.890625 44.34375 54.890625 33.015625 
z
" id="DejaVuSans-110"/>
     </defs>
     <g transform="translate(214.951406 335.860562)scale(0.1 -0.1)">
      <use xlink:href="#DejaVuSans-73"/>
      <use x="29.492188" xlink:href="#DejaVuSans-116"/>
      <use x="68.701172" xlink:href="#DejaVuSans-101"/>
      <use x="130.224609" xlink:href="#DejaVuSans-114"/>
      <use x="171.337891" xlink:href="#DejaVuSans-97"/>
      <use x="232.617188" xlink:href="#DejaVuSans-116"/>
      <use x="271.826172" xlink:href="#DejaVuSans-105"/>
      <use x="299.609375" xlink:href="#DejaVuSans-111"/>
      <use x="360.791016" xlink:href="#DejaVuSans-110"/>
     </g>
    </g>
   </g>
   <g id="matplotlib.axis_2">
    <g id="ytick_1">
     <g id="line2d_7">
      <defs>
       <path d="M 0 0 
L -3.5 0 
" id="mf49665b693" style="stroke:#000000;stroke-width:0.8;"/>
      </defs>
      <g>
       <use style="stroke:#000000;stroke-width:0.8;" x="57.6" xlink:href="#mf49665b693" y="295.488"/>
      </g>
     </g>
     <g id="text_8">
      <!-- 0.0 -->
      <defs>
       <path d="M 10.6875 12.40625 
L 21 12.40625 
L 21 0 
L 10.6875 0 
z
" id="DejaVuSans-46"/>
      </defs>
      <g transform="translate(34.696875 299.287219)scale(0.1 -0.1)">
       <use xlink:href="#DejaVuSans-48"/>
       <use x="63.623047" xlink:href="#DejaVuSans-46"/>
       <use x="95.410156" xlink:href="#DejaVuSans-48"/>
      </g>
     </g>
    </g>
    <g id="ytick_2">
     <g id="line2d_8">
      <g>
       <use style="stroke:#000000;stroke-width:0.8;" x="57.6" xlink:href="#mf49665b693" y="247.104"/>
      </g>
     </g>
     <g id="text_9">
      <!-- 0.2 -->
      <g transform="translate(34.696875 250.903219)scale(0.1 -0.1)">
       <use xlink:href="#DejaVuSans-48"/>
       <use x="63.623047" xlink:href="#DejaVuSans-46"/>
       <use x="95.410156" xlink:href="#DejaVuSans-50"/>
      </g>
     </g>
    </g>
    <g id="ytick_3">
     <g id="line2d_9">
      <g>
       <use style="stroke:#000000;stroke-width:0.8;" x="57.6" xlink:href="#mf49665b693" y="198.72"/>
      </g>
     </g>
     <g id="text_10">
      <!-- 0.4 -->
      <g transform="translate(34.696875 202.519219)scale(0.1 -0.1)">
       <use xlink:href="#DejaVuSans-48"/>
       <use x="63.623047" xlink:href="#DejaVuSans-46"/>
       <use x="95.410156" xlink:href="#DejaVuSans-52"/>
      </g>
     </g>
    </g>
    <g id="ytick_4">
     <g id="line2d_10">
      <g>
       <use style="stroke:#000000;stroke-width:0.8;" x="57.6" xlink:href="#mf49665b693" y="150.336"/>
      </g>
     </g>
     <g id="text_11">
      <!-- 0.6 -->
      <g transform="translate(34.696875 154.135219)scale(0.1 -0.1)">
       <use xlink:href="#DejaVuSans-48"/>
       <use x="63.623047" xlink:href="#DejaVuSans-46"/>
       <use x="95.410156" xlink:href="#DejaVuSans-54"/>
      </g>
     </g>
    </g>
    <g id="ytick_5">
     <g id="line2d_11">
      <g>
       <use style="stroke:#000000;stroke-width:0.8;" x="57.6" xlink:href="#mf49665b693" y="101.952"/>
      </g>
     </g>
     <g id="text_12">
      <!-- 0.8 -->
      <g transform="translate(34.696875 105.751219)scale(0.1 -0.1)">
       <use xlink:href="#DejaVuSans-48"/>
       <use x="63.623047" xlink:href="#DejaVuSans-46"/>
       <use x="95.410156" xlink:href="#DejaVuSans-56"/>
      </g>
     </g>
    </g>
    <g id="ytick_6">
     <g id="line2d_12">
      <g>
       <use style="stroke:#000000;stroke-width:0.8;" x="57.6" xlink:href="#mf49665b693" y="53.568"/>
      </g>
     </g>
     <g id="text_13">
      <!-- 1.0 -->
      <g transform="translate(34.696875 57.367219)scale(0.1 -0.1)">
       <use xlink:href="#DejaVuSans-49"/>
       <use x="63.623047" xlink:href="#DejaVuSans-46"/>
       <use x="95.410156" xlink:href="#DejaVuSans-48"/>
      </g>
     </g>
    </g>
    <g id="text_14">
     <!-- Probability -->
     <defs>
      <path d="M 19.671875 64.796875 
L 19.671875 37.40625 
L 32.078125 37.40625 
Q 38.96875 37.40625 42.71875 40.96875 
Q 46.484375 44.53125 46.484375 51.125 
Q 46.484375 57.671875 42.71875 61.234375 
Q 38.96875 64.796875 32.078125 64.796875 
z
M 9.8125 72.90625 
L 32.078125 72.90625 
Q 44.34375 72.90625 50.609375 67.359375 
Q 56.890625 61.8125 56.890625 51.125 
Q 56.890625 40.328125 50.609375 34.8125 
Q 44.34375 29.296875 32.078125 29.296875 
L 19.671875 29.296875 
L 19.671875 0 
L 9.8125 0 
z
" id="DejaVuSans-80"/>
      <path d="M 48.6875 27.296875 
Q 48.6875 37.203125 44.609375 42.84375 
Q 40.53125 48.484375 33.40625 48.484375 
Q 26.265625 48.484375 22.1875 42.84375 
Q 18.109375 37.203125 18.109375 27.296875 
Q 18.109375 17.390625 22.1875 11.75 
Q 26.265625 6.109375 33.40625 6.109375 
Q 40.53125 6.109375 44.609375 11.75 
Q 48.6875 17.390625 48.6875 27.296875 
z
M 18.109375 46.390625 
Q 20.953125 51.265625 25.265625 53.625 
Q 29.59375 56 35.59375 56 
Q 45.5625 56 51.78125 48.09375 
Q 58.015625 40.1875 58.015625 27.296875 
Q 58.015625 14.40625 51.78125 6.484375 
Q 45.5625 -1.421875 35.59375 -1.421875 
Q 29.59375 -1.421875 25.265625 0.953125 
Q 20.953125 3.328125 18.109375 8.203125 
L 18.109375 0 
L 9.078125 0 
L 9.078125 75.984375 
L 18.109375 75.984375 
z
" id="DejaVuSans-98"/>
      <path d="M 9.421875 75.984375 
L 18.40625 75.984375 
L 18.40625 0 
L 9.421875 0 
z
" id="DejaVuSans-108"/>
      <path d="M 32.171875 -5.078125 
Q 28.375 -14.84375 24.75 -17.8125 
Q 21.140625 -20.796875 15.09375 -20.796875 
L 7.90625 -20.796875 
L 7.90625 -13.28125 
L 13.1875 -13.28125 
Q 16.890625 -13.28125 18.9375 -11.515625 
Q 21 -9.765625 23.484375 -3.21875 
L 25.09375 0.875 
L 2.984375 54.6875 
L 12.5 54.6875 
L 29.59375 11.921875 
L 46.6875 54.6875 
L 56.203125 54.6875 
z
" id="DejaVuSans-121"/>
     </defs>
     <g transform="translate(28.617187 201.154562)rotate(-90)scale(0.1 -0.1)">
      <use xlink:href="#DejaVuSans-80"/>
      <use x="60.287109" xlink:href="#DejaVuSans-114"/>
      <use x="101.369141" xlink:href="#DejaVuSans-111"/>
      <use x="162.550781" xlink:href="#DejaVuSans-98"/>
      <use x="226.027344" xlink:href="#DejaVuSans-97"/>
      <use x="287.306641" xlink:href="#DejaVuSans-98"/>
      <use x="350.783203" xlink:href="#DejaVuSans-105"/>
      <use x="378.566406" xlink:href="#DejaVuSans-108"/>
      <use x="406.349609" xlink:href="#DejaVuSans-105"/>
      <use x="434.132812" xlink:href="#DejaVuSans-116"/>
      <use x="473.341797" xlink:href="#DejaVuSans-121"/>
     </g>
    </g>
   </g>
   <g id="line2d_13">
    <path clip-path="url(#p7109b38e73)" d="M 73.832727 295.488 
L 398.487273 295.488 
L 398.487273 295.488 
" style="fill:none;stroke:#1f77b4;stroke-linecap:square;stroke-width:1.5;"/>
   </g>
   <g id="line2d_14">
    <path clip-path="url(#p7109b38e73)" d="M 73.832727 295.488 
L 74.871726 295.488 
L 75.099007 253.152 
L 75.163944 255.168 
L 75.618506 265.248 
L 76.138005 271.968 
L 76.722442 276.672 
L 76.884785 277.662316 
L 77.241941 254.407245 
L 77.306878 255.168 
L 77.728971 259.499901 
L 77.891315 251.328 
L 77.956252 252.018 
L 78.703032 258.639258 
L 79.51475 263.873455 
L 80.391405 268.078345 
L 81.332997 271.504552 
L 82.079777 273.667765 
L 83.086307 249.810797 
L 83.216182 247.104 
L 83.281119 247.435397 
L 83.833087 250.079068 
L 84.0279 246.336 
L 84.092837 246.646107 
L 85.229241 251.502545 
L 86.430583 255.686252 
L 87.696863 259.313047 
L 89.060548 262.545702 
L 90.489171 265.365665 
L 92.0152 267.889283 
L 92.599637 268.747275 
L 94.093197 252.91008 
L 94.320478 250.702177 
L 94.385415 250.843457 
L 95.26207 252.667062 
L 95.52182 250.286206 
L 95.586757 250.420936 
L 97.27513 253.662274 
L 99.060908 256.619105 
L 100.944093 259.315751 
L 102.957152 261.813167 
L 105.100087 264.118705 
L 106.885865 265.811847 
L 108.866456 253.824 
L 109.256081 251.623385 
L 109.321018 251.703576 
L 109.483361 251.902777 
L 110.295079 247.491416 
L 110.360016 247.576668 
L 112.697763 250.456147 
L 115.165384 253.142505 
L 117.795349 255.67386 
L 120.587657 258.049999 
L 123.574778 260.296767 
L 126.756711 262.411262 
L 130.198393 264.429762 
L 130.588017 264.642854 
L 131.854297 260.038872 
L 131.919234 260.07848 
L 135.555729 262.163584 
L 139.484442 264.156789 
L 141.465032 265.073873 
L 142.341687 262.368682 
L 142.406625 262.40003 
L 145.296339 263.737373 
L 145.556089 262.976579 
L 145.653495 263.020653 
L 150.199113 264.952411 
L 151.627736 265.512931 
L 151.660205 265.424547 
L 152.082298 264.282226 
L 152.179704 264.321007 
L 153.543389 264.853993 
L 153.575858 264.768 
L 156.725322 256.7467 
L 158.576038 252.311164 
L 158.640975 252.344211 
L 163.316468 254.597641 
L 168.349117 256.774154 
L 173.77139 258.87393 
L 179.615756 260.896187 
L 185.947153 262.849112 
L 192.830518 264.736576 
L 195.298139 265.296487 
L 199.324258 258.505403 
L 200.720412 256.436703 
L 203.350377 257.168842 
L 203.545189 257.044757 
L 210.883116 259.10259 
L 218.805479 261.090508 
L 227.409685 263.017233 
L 233.221583 264.151723 
L 237.994482 258.030345 
L 240.04001 255.65625 
L 249.196184 257.735582 
L 259.099138 259.75319 
L 269.813809 261.706559 
L 281.470073 263.602672 
L 285.755941 264.173294 
L 289.944404 260.164845 
L 302.509791 262.105513 
L 309.78278 263.067791 
L 312.997182 260.350984 
L 316.925895 260.821846 
L 318.54933 259.575493 
L 332.640746 261.530589 
L 347.933505 263.424932 
L 364.622417 265.264881 
L 371.148626 265.84897 
L 374.265621 263.751359 
L 386.473853 264.940262 
L 388.8116 263.471377 
L 394.688435 263.959824 
L 395.142996 263.784429 
L 398.487273 264.110976 
L 398.487273 264.110976 
" style="fill:none;stroke:#ff7f0e;stroke-linecap:square;stroke-width:1.5;"/>
   </g>
   <g id="line2d_15">
    <path clip-path="url(#p7109b38e73)" d="M 73.832727 295.488 
L 76.657504 295.488 
L 76.884785 277.662316 
L 76.949723 278.029856 
L 77.241941 279.512151 
L 77.534159 261.829565 
L 77.599097 262.404923 
L 78.313408 267.641094 
L 79.092657 271.741252 
L 79.936843 275.008 
L 80.845967 277.650581 
L 81.820028 279.817069 
L 82.891495 281.664 
L 84.060368 283.238886 
L 85.359116 284.615191 
L 86.820208 285.835332 
L 88.476112 286.92446 
L 90.391765 287.913205 
L 92.632105 288.814345 
L 95.294539 289.640991 
L 98.541409 290.408315 
L 102.535059 291.114305 
L 107.535239 291.762572 
L 113.899105 292.353814 
L 122.211092 292.891944 
L 133.315388 293.376314 
L 137.7636 293.523168 
L 140.52344 283.598015 
L 141.52997 280.41149 
L 142.341687 280.590037 
L 145.231402 271.405964 
L 145.296339 271.208109 
L 145.393745 271.241143 
L 150.556269 272.871959 
L 156.238291 274.430765 
L 162.53722 275.925497 
L 169.582928 277.364502 
L 177.440353 278.738526 
L 186.304309 280.058182 
L 196.304669 281.317759 
L 207.701183 282.52381 
L 220.721132 283.672681 
L 235.689204 284.765112 
L 253.059959 285.804189 
L 273.320429 286.787541 
L 297.184924 287.717023 
L 312.964713 288.164058 
L 316.893426 284.437293 
L 329.978313 284.940411 
L 336.569459 279.136803 
L 342.154076 274.47184 
L 354.719463 275.355961 
L 357.284491 273.460008 
L 361.115797 273.671731 
L 364.232793 271.417704 
L 384.688075 273.001441 
L 398.487273 273.95712 
L 398.487273 273.95712 
" style="fill:none;stroke:#2ca02c;stroke-linecap:square;stroke-width:1.5;"/>
   </g>
   <g id="line2d_16">
    <path clip-path="url(#p7109b38e73)" d="M 73.832727 295.488 
L 73.962602 295.488 
L 74.157414 163.531636 
L 74.352226 124.720941 
L 74.676914 187.968 
L 75.066538 221.051077 
L 75.099007 222.912 
L 75.131475 218.781659 
L 75.586037 176.727273 
L 76.105536 148.97307 
L 76.138005 147.648 
L 76.170474 149.673205 
L 76.75491 178.515692 
L 77.371816 198.72 
L 77.891315 211.008 
L 78.638095 186.705181 
L 79.384875 201.251721 
L 80.229061 181.858909 
L 81.040779 167.47652 
L 81.982371 182.208 
L 82.988901 194.616763 
L 84.0279 204.864 
L 85.164304 189.7344 
L 86.073428 179.648 
L 87.307238 190.229538 
L 88.281299 197.309704 
L 89.612516 185.208246 
L 90.943733 174.986182 
L 92.404824 184.449675 
L 93.898385 192.701312 
L 95.456882 200.098255 
L 95.52182 200.383426 
L 95.554289 200.164299 
L 97.177724 189.984 
L 98.216722 184.179064 
L 98.249191 184.326884 
L 99.970032 191.636486 
L 101.073968 195.84 
L 102.892215 186.948 
L 104.288369 180.840077 
L 106.204023 187.61786 
L 108.217082 193.927245 
L 110.295079 199.710064 
L 112.405545 191.720801 
L 112.795169 190.340423 
L 112.827638 190.4279 
L 115.035509 196.053165 
L 115.684883 197.594791 
L 115.717352 197.483229 
L 117.990161 190.08127 
L 118.834347 187.522261 
L 118.866816 187.600046 
L 121.2695 193.060859 
L 122.048749 194.715133 
L 122.081218 194.620213 
L 124.51637 187.847539 
L 125.652775 184.904656 
L 125.685243 184.973857 
L 128.28274 190.242708 
L 129.7763 193.050877 
L 129.808769 192.970017 
L 130.588017 191.057125 
L 130.620486 191.1168 
L 131.854297 193.33498 
L 131.886765 193.256854 
L 134.581668 187.063385 
L 137.373976 181.199951 
L 137.7636 180.422497 
L 137.796069 180.480877 
L 140.718252 185.503022 
L 143.737841 190.251677 
L 145.556089 192.918299 
L 145.588557 192.855273 
L 148.640615 187.175011 
L 148.705553 187.059183 
L 148.77049 187.153102 
L 152.01736 191.650192 
L 152.082298 191.736328 
L 152.114766 191.679045 
L 153.543389 189.204743 
L 153.575858 189.248 
L 156.985072 193.602098 
L 159.485162 196.574897 
L 161.141065 193.863613 
L 161.173534 193.901378 
L 162.861907 195.827191 
L 162.894375 195.775347 
L 164.842497 192.732394 
L 164.874966 192.769027 
L 166.888026 194.990365 
L 166.920494 194.941054 
L 169.323178 191.385104 
L 169.355647 191.420477 
L 171.823268 194.040262 
L 171.855737 193.993748 
L 174.583108 190.193567 
L 174.615576 190.227478 
L 177.407885 193.064333 
L 177.440353 193.020632 
L 180.654755 188.825612 
L 183.999031 192.062567 
L 187.830338 187.409276 
L 192.213613 191.409996 
L 192.27855 191.467041 
L 192.343487 191.3915 
L 195.265671 188.075779 
L 195.298139 188.104483 
L 199.908695 192.030451 
L 203.480252 194.819237 
L 207.993402 190.068711 
L 209.486962 188.68197 
L 214.519611 192.501752 
L 215.591078 193.169191 
L 220.396445 188.593116 
L 222.182224 187.073961 
L 227.572028 190.873946 
L 229.130526 191.822448 
L 233.221583 188.323845 
L 238.968543 192.052576 
L 243.741442 194.911401 
L 249.261121 190.464995 
L 250.332588 189.767581 
L 256.631516 193.409875 
L 256.923735 193.486979 
L 262.80057 189.136294 
L 264.131786 188.31191 
L 270.820339 191.950386 
L 271.404775 192.137359 
L 277.671235 187.8781 
L 279.164795 187.016044 
L 286.275441 190.646142 
L 289.944404 192.35311 
L 296.730362 188.128513 
L 301.211043 185.546344 
L 308.971063 189.17413 
L 317.088238 192.721236 
L 318.516861 193.224882 
L 326.0496 189.05441 
L 330.010781 187.051675 
L 338.712393 190.613501 
L 342.219013 191.89579 
L 350.401126 187.803924 
L 354.751932 185.809026 
L 364.167855 189.365652 
L 368.616067 190.886907 
L 371.181095 189.808131 
L 374.265621 190.788454 
L 382.642546 187.066537 
L 393.000062 190.584637 
L 395.110528 191.17589 
L 398.487273 189.744768 
L 398.487273 189.744768 
" style="fill:none;stroke:#d62728;stroke-linecap:square;stroke-width:1.5;"/>
   </g>
   <g id="line2d_17">
    <path clip-path="url(#p7109b38e73)" d="M 73.832727 53.568 
L 73.865196 53.568 
L 74.027539 226.368 
L 74.25482 260.928 
L 74.352226 267.026824 
L 74.676914 187.968 
L 74.871726 163.531636 
L 74.904194 167.412706 
L 75.326288 202.837787 
L 75.813318 225.253161 
L 76.138005 235.008 
L 76.657504 202.018909 
L 77.27441 218.616224 
L 77.534159 223.963826 
L 77.728971 215.514446 
L 77.793909 216.814829 
L 78.50822 228.751448 
L 78.638095 230.543034 
L 79.384875 206.877767 
L 80.229061 218.513455 
L 81.040779 227.142888 
L 81.982371 207.168 
L 82.079777 205.360941 
L 82.144715 206.062319 
L 83.183713 215.964125 
L 83.216182 216.238345 
L 83.248651 215.67934 
L 83.833087 206.235961 
L 83.865556 206.523871 
L 84.969492 215.316837 
L 86.073428 222.528 
L 87.307238 207.094154 
L 88.281299 196.767283 
L 89.612516 205.078472 
L 90.943733 212.098909 
L 92.372356 199.904224 
L 92.599637 198.135047 
L 92.664574 198.470169 
L 94.190603 205.731057 
L 94.320478 206.299139 
L 94.352947 206.057858 
L 95.26207 199.598378 
L 95.294539 199.743227 
L 96.917974 206.466876 
L 98.216722 211.202043 
L 99.937563 200.823652 
L 101.073968 194.688 
L 101.106436 194.807857 
L 102.924684 201.093351 
L 104.288369 205.315476 
L 106.204023 196.344433 
L 106.885865 193.402033 
L 106.918334 193.502118 
L 108.931394 199.346041 
L 109.256081 200.226462 
L 109.288549 200.092282 
L 109.483361 199.292331 
L 109.548299 199.467074 
L 111.658764 204.81987 
L 112.795169 207.462155 
L 112.827638 207.334123 
L 115.003041 199.21566 
L 115.684883 196.844651 
L 115.717352 196.92106 
L 118.02263 202.059278 
L 118.834347 203.743285 
L 118.866816 203.635089 
L 121.204563 196.234521 
L 122.048749 193.738336 
L 122.081218 193.806763 
L 124.581308 198.812808 
L 125.652775 200.81048 
L 125.685243 200.718338 
L 128.217802 193.870053 
L 129.7763 189.963731 
L 129.808769 190.024904 
L 132.536139 194.92203 
L 135.360916 199.536608 
L 138.2831 203.884858 
L 141.302689 207.982545 
L 144.452153 211.883294 
L 147.731492 215.591715 
L 148.705553 216.630679 
L 148.738021 216.560028 
L 151.627736 210.508175 
L 155.134356 214.171976 
L 158.576038 217.473201 
L 159.485162 215.734154 
L 159.550099 215.794551 
L 161.141065 217.246216 
L 161.173534 217.185391 
L 162.861907 214.08364 
L 162.894375 214.113306 
L 164.842497 215.854562 
L 164.874966 215.796706 
L 166.888026 212.288446 
L 166.920494 212.317456 
L 169.323178 214.409441 
L 169.355647 214.354789 
L 171.823268 210.307159 
L 171.855737 210.335364 
L 174.583108 212.639753 
L 174.615576 212.588522 
L 177.407885 208.302792 
L 177.440353 208.330105 
L 180.654755 210.951993 
L 183.999031 206.175755 
L 187.830338 209.176565 
L 191.856457 203.869782 
L 192.343487 203.384795 
L 197.083918 206.926293 
L 200.655475 209.357793 
L 203.350377 206.177684 
L 208.480432 209.579572 
L 209.486962 210.101065 
L 214.03258 205.02706 
L 215.591078 203.473088 
L 221.078288 206.901333 
L 222.182224 207.45453 
L 227.052529 202.564068 
L 229.130526 200.671946 
L 235.007361 204.128483 
L 239.942604 206.842309 
L 243.741442 203.462261 
L 250.170245 206.81666 
L 250.300119 206.792901 
L 255.852267 202.11991 
L 256.956203 201.353201 
L 263.742162 204.716308 
L 264.099318 204.804117 
L 270.008621 200.249264 
L 271.404775 199.332154 
L 278.612827 202.716205 
L 279.164795 202.850808 
L 285.496192 198.386061 
L 285.78841 198.297594 
L 293.451024 201.688124 
L 301.146106 204.863013 
L 307.997002 200.437219 
L 309.815249 199.40559 
L 318.28958 202.735936 
L 327.186004 205.99248 
L 336.53699 209.177689 
L 346.375007 212.292879 
L 356.764991 215.347663 
L 357.284491 215.383691 
L 361.115797 213.307921 
L 364.200324 214.099664 
L 368.616067 211.775154 
L 379.785301 214.830886 
L 382.772421 215.508984 
L 386.538791 213.659163 
L 388.8116 214.149818 
L 394.623497 211.289753 
L 398.487273 212.291712 
L 398.487273 212.291712 
" style="fill:none;stroke:#9467bd;stroke-linecap:square;stroke-width:1.5;"/>
   </g>
   <g id="line2d_18">
    <path clip-path="url(#p7109b38e73)" d="M 73.832727 295.488 
L 73.865196 295.488 
L 73.962602 150.336 
L 73.995071 174.528 
L 74.222352 239.660308 
L 74.51457 262.498909 
L 74.871726 273.495273 
L 75.293819 279.710609 
L 75.748381 283.392 
L 76.26788 285.938526 
L 76.852317 287.767149 
L 77.534159 289.177043 
L 78.313408 290.266705 
L 79.222532 291.142132 
L 80.293999 291.8592 
L 81.625216 292.476548 
L 83.346057 293.019429 
L 85.651335 293.499616 
L 88.833267 293.920484 
L 93.411354 294.286411 
L 100.359656 294.600763 
L 111.593827 294.864495 
L 131.26986 295.077966 
L 169.972552 295.242976 
L 260.138136 295.361539 
L 398.487273 295.415424 
L 398.487273 295.415424 
" style="fill:none;stroke:#8c564b;stroke-linecap:square;stroke-width:1.5;"/>
   </g>
   <g id="patch_3">
    <path d="M 57.6 307.584 
L 57.6 41.472 
" style="fill:none;stroke:#000000;stroke-linecap:square;stroke-linejoin:miter;stroke-width:0.8;"/>
   </g>
   <g id="patch_4">
    <path d="M 414.72 307.584 
L 414.72 41.472 
" style="fill:none;stroke:#000000;stroke-linecap:square;stroke-linejoin:miter;stroke-width:0.8;"/>
   </g>
   <g id="patch_5">
    <path d="M 57.6 307.584 
L 414.72 307.584 
" style="fill:none;stroke:#000000;stroke-linecap:square;stroke-linejoin:miter;stroke-width:0.8;"/>
   </g>
   <g id="patch_6">
    <path d="M 57.6 41.472 
L 414.72 41.472 
" style="fill:none;stroke:#000000;stroke-linecap:square;stroke-linejoin:miter;stroke-width:0.8;"/>
   </g>
   <g id="text_15">
    <!-- Actions taken by row player -->
    <defs>
     <path d="M 34.1875 63.1875 
L 20.796875 26.90625 
L 47.609375 26.90625 
z
M 28.609375 72.90625 
L 39.796875 72.90625 
L 67.578125 0 
L 57.328125 0 
L 50.6875 18.703125 
L 17.828125 18.703125 
L 11.1875 0 
L 0.78125 0 
z
" id="DejaVuSans-65"/>
     <path d="M 48.78125 52.59375 
L 48.78125 44.1875 
Q 44.96875 46.296875 41.140625 47.34375 
Q 37.3125 48.390625 33.40625 48.390625 
Q 24.65625 48.390625 19.8125 42.84375 
Q 14.984375 37.3125 14.984375 27.296875 
Q 14.984375 17.28125 19.8125 11.734375 
Q 24.65625 6.203125 33.40625 6.203125 
Q 37.3125 6.203125 41.140625 7.25 
Q 44.96875 8.296875 48.78125 10.40625 
L 48.78125 2.09375 
Q 45.015625 0.34375 40.984375 -0.53125 
Q 36.96875 -1.421875 32.421875 -1.421875 
Q 20.0625 -1.421875 12.78125 6.34375 
Q 5.515625 14.109375 5.515625 27.296875 
Q 5.515625 40.671875 12.859375 48.328125 
Q 20.21875 56 33.015625 56 
Q 37.15625 56 41.109375 55.140625 
Q 45.0625 54.296875 48.78125 52.59375 
z
" id="DejaVuSans-99"/>
     <path d="M 44.28125 53.078125 
L 44.28125 44.578125 
Q 40.484375 46.53125 36.375 47.5 
Q 32.28125 48.484375 27.875 48.484375 
Q 21.1875 48.484375 17.84375 46.4375 
Q 14.5 44.390625 14.5 40.28125 
Q 14.5 37.15625 16.890625 35.375 
Q 19.28125 33.59375 26.515625 31.984375 
L 29.59375 31.296875 
Q 39.15625 29.25 43.1875 25.515625 
Q 47.21875 21.78125 47.21875 15.09375 
Q 47.21875 7.46875 41.1875 3.015625 
Q 35.15625 -1.421875 24.609375 -1.421875 
Q 20.21875 -1.421875 15.453125 -0.5625 
Q 10.6875 0.296875 5.421875 2 
L 5.421875 11.28125 
Q 10.40625 8.6875 15.234375 7.390625 
Q 20.0625 6.109375 24.8125 6.109375 
Q 31.15625 6.109375 34.5625 8.28125 
Q 37.984375 10.453125 37.984375 14.40625 
Q 37.984375 18.0625 35.515625 20.015625 
Q 33.0625 21.96875 24.703125 23.78125 
L 21.578125 24.515625 
Q 13.234375 26.265625 9.515625 29.90625 
Q 5.8125 33.546875 5.8125 39.890625 
Q 5.8125 47.609375 11.28125 51.796875 
Q 16.75 56 26.8125 56 
Q 31.78125 56 36.171875 55.265625 
Q 40.578125 54.546875 44.28125 53.078125 
z
" id="DejaVuSans-115"/>
     <path id="DejaVuSans-32"/>
     <path d="M 9.078125 75.984375 
L 18.109375 75.984375 
L 18.109375 31.109375 
L 44.921875 54.6875 
L 56.390625 54.6875 
L 27.390625 29.109375 
L 57.625 0 
L 45.90625 0 
L 18.109375 26.703125 
L 18.109375 0 
L 9.078125 0 
z
" id="DejaVuSans-107"/>
     <path d="M 4.203125 54.6875 
L 13.1875 54.6875 
L 24.421875 12.015625 
L 35.59375 54.6875 
L 46.1875 54.6875 
L 57.421875 12.015625 
L 68.609375 54.6875 
L 77.59375 54.6875 
L 63.28125 0 
L 52.6875 0 
L 40.921875 44.828125 
L 29.109375 0 
L 18.5 0 
z
" id="DejaVuSans-119"/>
     <path d="M 18.109375 8.203125 
L 18.109375 -20.796875 
L 9.078125 -20.796875 
L 9.078125 54.6875 
L 18.109375 54.6875 
L 18.109375 46.390625 
Q 20.953125 51.265625 25.265625 53.625 
Q 29.59375 56 35.59375 56 
Q 45.5625 56 51.78125 48.09375 
Q 58.015625 40.1875 58.015625 27.296875 
Q 58.015625 14.40625 51.78125 6.484375 
Q 45.5625 -1.421875 35.59375 -1.421875 
Q 29.59375 -1.421875 25.265625 0.953125 
Q 20.953125 3.328125 18.109375 8.203125 
z
M 48.6875 27.296875 
Q 48.6875 37.203125 44.609375 42.84375 
Q 40.53125 48.484375 33.40625 48.484375 
Q 26.265625 48.484375 22.1875 42.84375 
Q 18.109375 37.203125 18.109375 27.296875 
Q 18.109375 17.390625 22.1875 11.75 
Q 26.265625 6.109375 33.40625 6.109375 
Q 40.53125 6.109375 44.609375 11.75 
Q 48.6875 17.390625 48.6875 27.296875 
z
" id="DejaVuSans-112"/>
    </defs>
    <g transform="translate(152.250938 35.472)scale(0.12 -0.12)">
     <use xlink:href="#DejaVuSans-65"/>
     <use x="68.392578" xlink:href="#DejaVuSans-99"/>
     <use x="123.373047" xlink:href="#DejaVuSans-116"/>
     <use x="162.582031" xlink:href="#DejaVuSans-105"/>
     <use x="190.365234" xlink:href="#DejaVuSans-111"/>
     <use x="251.546875" xlink:href="#DejaVuSans-110"/>
     <use x="314.925781" xlink:href="#DejaVuSans-115"/>
     <use x="367.025391" xlink:href="#DejaVuSans-32"/>
     <use x="398.8125" xlink:href="#DejaVuSans-116"/>
     <use x="438.021484" xlink:href="#DejaVuSans-97"/>
     <use x="499.300781" xlink:href="#DejaVuSans-107"/>
     <use x="557.164062" xlink:href="#DejaVuSans-101"/>
     <use x="618.6875" xlink:href="#DejaVuSans-110"/>
     <use x="682.066406" xlink:href="#DejaVuSans-32"/>
     <use x="713.853516" xlink:href="#DejaVuSans-98"/>
     <use x="777.330078" xlink:href="#DejaVuSans-121"/>
     <use x="836.509766" xlink:href="#DejaVuSans-32"/>
     <use x="868.296875" xlink:href="#DejaVuSans-114"/>
     <use x="909.378906" xlink:href="#DejaVuSans-111"/>
     <use x="970.560547" xlink:href="#DejaVuSans-119"/>
     <use x="1052.347656" xlink:href="#DejaVuSans-32"/>
     <use x="1084.134766" xlink:href="#DejaVuSans-112"/>
     <use x="1147.611328" xlink:href="#DejaVuSans-108"/>
     <use x="1175.394531" xlink:href="#DejaVuSans-97"/>
     <use x="1236.673828" xlink:href="#DejaVuSans-121"/>
     <use x="1295.853516" xlink:href="#DejaVuSans-101"/>
     <use x="1357.376953" xlink:href="#DejaVuSans-114"/>
    </g>
   </g>
   <g id="legend_1">
    <g id="patch_7">
     <path d="M 365.72 137.54075 
L 407.72 137.54075 
Q 409.72 137.54075 409.72 135.54075 
L 409.72 48.472 
Q 409.72 46.472 407.72 46.472 
L 365.72 46.472 
Q 363.72 46.472 363.72 48.472 
L 363.72 135.54075 
Q 363.72 137.54075 365.72 137.54075 
z
" style="fill:#ffffff;opacity:0.8;stroke:#cccccc;stroke-linejoin:miter;"/>
    </g>
    <g id="line2d_19">
     <path d="M 367.72 54.570438 
L 387.72 54.570438 
" style="fill:none;stroke:#1f77b4;stroke-linecap:square;stroke-width:1.5;"/>
    </g>
    <g id="line2d_20"/>
    <g id="text_16">
     <!-- $s_0$ -->
     <defs>
      <path d="M 50 53.078125 
L 48.296875 44.578125 
Q 44.734375 46.53125 40.765625 47.5 
Q 36.8125 48.484375 32.625 48.484375 
Q 25.53125 48.484375 21.453125 46.0625 
Q 17.390625 43.65625 17.390625 39.5 
Q 17.390625 34.671875 26.859375 32.078125 
Q 27.59375 31.890625 27.9375 31.78125 
L 30.8125 30.90625 
Q 39.796875 28.421875 42.796875 25.6875 
Q 45.796875 22.953125 45.796875 18.21875 
Q 45.796875 9.515625 38.890625 4.046875 
Q 31.984375 -1.421875 20.796875 -1.421875 
Q 16.453125 -1.421875 11.671875 -0.578125 
Q 6.890625 0.25 1.125 2 
L 2.875 11.28125 
Q 7.8125 8.734375 12.59375 7.421875 
Q 17.390625 6.109375 21.78125 6.109375 
Q 28.375 6.109375 32.5 8.9375 
Q 36.625 11.765625 36.625 16.109375 
Q 36.625 20.796875 25.78125 23.6875 
L 24.859375 23.921875 
L 21.78125 24.703125 
Q 14.9375 26.515625 11.765625 29.46875 
Q 8.59375 32.421875 8.59375 37.015625 
Q 8.59375 45.75 15.15625 50.875 
Q 21.734375 56 33.015625 56 
Q 37.453125 56 41.671875 55.265625 
Q 45.90625 54.546875 50 53.078125 
z
" id="DejaVuSans-Oblique-115"/>
     </defs>
     <g transform="translate(395.72 58.070438)scale(0.1 -0.1)">
      <use xlink:href="#DejaVuSans-Oblique-115"/>
      <use transform="translate(52.099609 -16.40625)scale(0.7)" xlink:href="#DejaVuSans-48"/>
     </g>
    </g>
    <g id="line2d_21">
     <path d="M 367.72 69.248563 
L 387.72 69.248563 
" style="fill:none;stroke:#ff7f0e;stroke-linecap:square;stroke-width:1.5;"/>
    </g>
    <g id="line2d_22"/>
    <g id="text_17">
     <!-- $s_1$ -->
     <g transform="translate(395.72 72.748563)scale(0.1 -0.1)">
      <use xlink:href="#DejaVuSans-Oblique-115"/>
      <use transform="translate(52.099609 -16.40625)scale(0.7)" xlink:href="#DejaVuSans-49"/>
     </g>
    </g>
    <g id="line2d_23">
     <path d="M 367.72 83.926688 
L 387.72 83.926688 
" style="fill:none;stroke:#2ca02c;stroke-linecap:square;stroke-width:1.5;"/>
    </g>
    <g id="line2d_24"/>
    <g id="text_18">
     <!-- $s_2$ -->
     <g transform="translate(395.72 87.426688)scale(0.1 -0.1)">
      <use xlink:href="#DejaVuSans-Oblique-115"/>
      <use transform="translate(52.099609 -16.40625)scale(0.7)" xlink:href="#DejaVuSans-50"/>
     </g>
    </g>
    <g id="line2d_25">
     <path d="M 367.72 98.604813 
L 387.72 98.604813 
" style="fill:none;stroke:#d62728;stroke-linecap:square;stroke-width:1.5;"/>
    </g>
    <g id="line2d_26"/>
    <g id="text_19">
     <!-- $s_3$ -->
     <defs>
      <path d="M 40.578125 39.3125 
Q 47.65625 37.796875 51.625 33 
Q 55.609375 28.21875 55.609375 21.1875 
Q 55.609375 10.40625 48.1875 4.484375 
Q 40.765625 -1.421875 27.09375 -1.421875 
Q 22.515625 -1.421875 17.65625 -0.515625 
Q 12.796875 0.390625 7.625 2.203125 
L 7.625 11.71875 
Q 11.71875 9.328125 16.59375 8.109375 
Q 21.484375 6.890625 26.8125 6.890625 
Q 36.078125 6.890625 40.9375 10.546875 
Q 45.796875 14.203125 45.796875 21.1875 
Q 45.796875 27.640625 41.28125 31.265625 
Q 36.765625 34.90625 28.71875 34.90625 
L 20.21875 34.90625 
L 20.21875 43.015625 
L 29.109375 43.015625 
Q 36.375 43.015625 40.234375 45.921875 
Q 44.09375 48.828125 44.09375 54.296875 
Q 44.09375 59.90625 40.109375 62.90625 
Q 36.140625 65.921875 28.71875 65.921875 
Q 24.65625 65.921875 20.015625 65.03125 
Q 15.375 64.15625 9.8125 62.3125 
L 9.8125 71.09375 
Q 15.4375 72.65625 20.34375 73.4375 
Q 25.25 74.21875 29.59375 74.21875 
Q 40.828125 74.21875 47.359375 69.109375 
Q 53.90625 64.015625 53.90625 55.328125 
Q 53.90625 49.265625 50.4375 45.09375 
Q 46.96875 40.921875 40.578125 39.3125 
z
" id="DejaVuSans-51"/>
     </defs>
     <g transform="translate(395.72 102.104813)scale(0.1 -0.1)">
      <use xlink:href="#DejaVuSans-Oblique-115"/>
      <use transform="translate(52.099609 -16.40625)scale(0.7)" xlink:href="#DejaVuSans-51"/>
     </g>
    </g>
    <g id="line2d_27">
     <path d="M 367.72 113.282938 
L 387.72 113.282938 
" style="fill:none;stroke:#9467bd;stroke-linecap:square;stroke-width:1.5;"/>
    </g>
    <g id="line2d_28"/>
    <g id="text_20">
     <!-- $s_4$ -->
     <g transform="translate(395.72 116.782938)scale(0.1 -0.1)">
      <use xlink:href="#DejaVuSans-Oblique-115"/>
      <use transform="translate(52.099609 -16.40625)scale(0.7)" xlink:href="#DejaVuSans-52"/>
     </g>
    </g>
    <g id="line2d_29">
     <path d="M 367.72 127.961063 
L 387.72 127.961063 
" style="fill:none;stroke:#8c564b;stroke-linecap:square;stroke-width:1.5;"/>
    </g>
    <g id="line2d_30"/>
    <g id="text_21">
     <!-- $s_5$ -->
     <defs>
      <path d="M 10.796875 72.90625 
L 49.515625 72.90625 
L 49.515625 64.59375 
L 19.828125 64.59375 
L 19.828125 46.734375 
Q 21.96875 47.46875 24.109375 47.828125 
Q 26.265625 48.1875 28.421875 48.1875 
Q 40.625 48.1875 47.75 41.5 
Q 54.890625 34.8125 54.890625 23.390625 
Q 54.890625 11.625 47.5625 5.09375 
Q 40.234375 -1.421875 26.90625 -1.421875 
Q 22.3125 -1.421875 17.546875 -0.640625 
Q 12.796875 0.140625 7.71875 1.703125 
L 7.71875 11.625 
Q 12.109375 9.234375 16.796875 8.0625 
Q 21.484375 6.890625 26.703125 6.890625 
Q 35.15625 6.890625 40.078125 11.328125 
Q 45.015625 15.765625 45.015625 23.390625 
Q 45.015625 31 40.078125 35.4375 
Q 35.15625 39.890625 26.703125 39.890625 
Q 22.75 39.890625 18.8125 39.015625 
Q 14.890625 38.140625 10.796875 36.28125 
z
" id="DejaVuSans-53"/>
     </defs>
     <g transform="translate(395.72 131.461063)scale(0.1 -0.1)">
      <use xlink:href="#DejaVuSans-Oblique-115"/>
      <use transform="translate(52.099609 -16.40625)scale(0.7)" xlink:href="#DejaVuSans-53"/>
     </g>
    </g>
   </g>
  </g>
 </g>
 <defs>
  <clipPath id="p7109b38e73">
   <rect height="266.112" width="357.12" x="57.6" y="41.472"/>
  </clipPath>
 </defs>
</svg>
